<?xml version="1.0" encoding="UTF-8" standalone="no"?>
<!-- Created with Inkscape (http://www.inkscape.org/) -->

<svg
   width="120"
   height="120"
   viewBox="0 0 120 120"
   version="1.1"
   id="svg1"
   inkscape:version="1.4.2 (ebf0e940, 2025-05-08)"
   sodipodi:docname="acorn1.svg"
   xmlns:inkscape="http://www.inkscape.org/namespaces/inkscape"
   xmlns:sodipodi="http://sodipodi.sourceforge.net/DTD/sodipodi-0.dtd"
   xmlns="http://www.w3.org/2000/svg"
   xmlns:svg="http://www.w3.org/2000/svg">
  <sodipodi:namedview
     id="namedview1"
     pagecolor="#ffffff"
     bordercolor="#000000"
     borderopacity="0.25"
     inkscape:showpageshadow="2"
     inkscape:pageopacity="0.0"
     inkscape:pagecheckerboard="false"
     inkscape:deskcolor="#d1d1d1"
     inkscape:document-units="px"
     inkscape:zoom="4.2914638"
     inkscape:cx="54.99289"
     inkscape:cy="55.924973"
     inkscape:window-width="1440"
     inkscape:window-height="847"
     inkscape:window-x="0"
     inkscape:window-y="25"
     inkscape:window-maximized="1"
     inkscape:current-layer="layer1"
     showguides="true" />
  <defs
     id="defs1">
    <clipPath
       clipPathUnits="userSpaceOnUse"
       id="clipPath15">
      <rect
         style="fill:none;stroke:#000000;stroke-linecap:butt;stroke-linejoin:bevel;paint-order:stroke markers fill;stop-color:#000000"
         id="rect15-7"
         width="45.034248"
         height="38.955639"
         x="262.48285"
         y="121.00073" />
    </clipPath>
    <clipPath
       clipPathUnits="userSpaceOnUse"
       id="clipPath24">
      <rect
         style="fill:none;stroke:#000000;stroke-width:0.999999;stroke-linecap:butt;stroke-linejoin:bevel;paint-order:stroke markers fill;stop-color:#000000"
         id="rect24"
         width="44.999748"
         height="77.937294"
         x="251.53429"
         y="222.73541" />
    </clipPath>
    <clipPath
       clipPathUnits="userSpaceOnUse"
       id="clipPath52">
      <path
         id="path52"
         style="stroke-width:0.1;stroke-linecap:square;paint-order:markers fill stroke;stop-color:#000000"
         d="m -880.82767,-187.29769 h 1640.84 v 73.28155 h -1640.84 z" />
    </clipPath>
  </defs>
  <g
     inkscape:label="Layer 1"
     inkscape:groupmode="layer"
     id="layer1">
    <path
       id="path3"
       style="fill:#854116;fill-opacity:1;stroke-width:2.74047"
       d="M 35.109879,26.683675 C 18.142535,26.683691 -1.3195197,31.733453 6.8349104,41.042719 H 63.160892 C 71.744165,32.851739 52.077223,26.683691 35.109879,26.683675 Z"
       sodipodi:nodetypes="cccc" />
    <path
       style="fill:#b07553;fill-opacity:1;stroke-width:2.23663"
       d="m 6.8349104,41.042719 v 7.235356 c 0,0 0.223957,43.269257 28.2749686,43.269257 28.051013,0 28.051013,-43.743573 28.051013,-43.743573 v -6.76104 z"
       id="path12"
       sodipodi:nodetypes="ccsccc" />
    <path
       style="fill:#b07553;fill-opacity:1;stroke-width:2.23663"
       d="m 31.606411,91.270921 c 0,0 -0.0573,3.461379 3.474818,3.461379 3.532119,0 3.532119,-3.461379 3.532119,-3.461379 z"
       id="path13" />
    <path
       style="fill:#964c25;fill-opacity:0.996139;stroke-width:2.23663"
       d="m 31.635063,26.78907 v -2.866506 c 0,0 -0.0573,-2.736213 3.474816,-4.430056 3.532119,-1.693845 5.466913,-1.180566 5.466913,-1.180566 0,0 0.768907,-0.122395 1.680979,0.268484 0.912069,0.390886 -0.260594,2.996802 -0.260594,2.996802 0,0 -3.355179,0.789679 -3.355179,0.268507 0,-0.521183 -0.425947,3.377854 0,4.493561 0.425948,1.115707 -7.006935,0.449762 -7.006935,0.449762 z"
       id="path14"
       sodipodi:nodetypes="ccscscsscc" />
    <path
       id="path3-7"
       style="fill:#854116;fill-opacity:1;stroke-width:2.74047"
       d="M 98.42386,45.766594 C 86.426125,33.768882 69.093653,23.577852 68.277061,35.92655 l 39.828479,39.828483 c 11.86119,0.277393 2.31603,-17.990703 -9.68168,-29.988439 z"
       sodipodi:nodetypes="cccc" />
    <path
       style="fill:#cd8f6f;fill-opacity:1;stroke-width:2.23663"
       d="m 68.277061,35.92655 -5.116169,5.116169 c 0,0 -30.437625,30.754348 -10.602565,50.589408 C 72.393389,111.46719 103.32477,80.53581 103.32477,80.53581 l 4.78077,-4.780777 z"
       id="path12-4"
       sodipodi:nodetypes="ccsccc" />
    <path
       style="fill:#cd8f6f;fill-opacity:1;stroke-width:2.23663"
       d="m 50.276453,88.959349 c 0,0 -2.488083,2.407048 0.0095,4.904633 2.497585,2.497585 4.94515,0.05002 4.94515,0.05002 z"
       id="path13-8" />
    <path
       style="fill:#964c25;fill-opacity:0.996139;stroke-width:2.23663"
       d="m 95.892268,43.384054 2.026926,-2.026926 c 0,0 1.894278,-1.975312 5.589586,-0.675457 3.69532,1.299856 4.70048,3.030905 4.70048,3.030905 0,0 0.63025,0.457153 0.99879,1.378479 0.36853,0.921328 -2.30333,1.934791 -2.30333,1.934791 0,0 -2.93086,-1.814082 -2.56233,-2.182607 0.36853,-0.368532 -2.6897,2.087314 -3.17743,3.177428 -0.48773,1.090115 -5.272683,-4.636622 -5.272683,-4.636622 z"
       id="path14-5"
       sodipodi:nodetypes="ccscscsscc" />
  </g>
</svg>
